<?xml version="1.0" encoding="utf-8"?>
<!-- Generator: Adobe Illustrator 26.0.3, SVG Export Plug-In . SVG Version: 6.00 Build 0)  -->
<svg version="1.1" id="Ebene_1" xmlns="http://www.w3.org/2000/svg" xmlns:xlink="http://www.w3.org/1999/xlink" x="0px" y="0px"
	 viewBox="0 0 380.6 397.1" style="enable-background:new 0 0 380.6 397.1;" xml:space="preserve">
<style type="text/css">
	.st0{fill:#A9E8D2;}
</style>
<g>
	<g>
		<path class="st0" d="M332,34.5c-10.3-11.3-21.9-21.3-34.5-29.9c0,2.6,0.2,81.8-0.5,81.8V87l-96.7,26.7v169.2
			c-3.2,2.5-6.5,4.9-9.9,7.3c-3.3-2.3-6.6-4.8-9.9-7.3V114.7c-1.5-0.4-84.7-23.1-96.2-26.2V3.2c-13,8.6-25,18.7-35.5,30
			c0.1,32.2-2.3,92.8,8,123.3l0,0c18.5,73.5,67.8,138.1,133.5,175.8C296.4,274.3,343.5,151.3,332,34.5z M144.9,249.4
			c-30.7-35-51.1-78.7-58.2-124.7l58.2,15.7V249.4z M235.8,249.4v-110l58.4-15.8C287.2,170,266.6,214.1,235.8,249.4z"/>
		<path class="st0" d="M377.8,122.8c2,115.3-88.4,222.6-188.2,272.3v-0.3c-110-56.4-244.2-212-160.8-336.1
			c-8.5,119.6,55.8,238.2,160.8,296.2v0.2c105.8-56.3,169.7-177.4,161.2-296.4C363.4,77.9,372.7,99.5,377.8,122.8z"/>
	</g>
</g>
</svg>
