<svg width="30" height="30" viewBox="0 0 30 30" fill="none" xmlns="http://www.w3.org/2000/svg">
<path fill-rule="evenodd" clip-rule="evenodd" d="M15 3.75C15.5178 3.75 15.9375 4.16974 15.9375 4.6875V14.0625H25.3125C25.8302 14.0625 26.25 14.4822 26.25 15C26.25 15.5178 25.8302 15.9375 25.3125 15.9375H15.9375V25.3125C15.9375 25.8302 15.5178 26.25 15 26.25C14.4822 26.25 14.0625 25.8302 14.0625 25.3125V15.9375H4.6875C4.16974 15.9375 3.75 15.5178 3.75 15C3.75 14.4822 4.16974 14.0625 4.6875 14.0625H14.0625V4.6875C14.0625 4.16974 14.4822 3.75 15 3.75Z" fill="white"/>
</svg>
