<?xml version="1.0" encoding="utf-8"?>
<!-- Generator: Adobe Illustrator 26.0.3, SVG Export Plug-In . SVG Version: 6.00 Build 0)  -->
<svg version="1.1" id="Ebene_1" xmlns="http://www.w3.org/2000/svg" xmlns:xlink="http://www.w3.org/1999/xlink" x="0px" y="0px"
	 viewBox="0 0 24 24" style="enable-background:new 0 0 24 24;" xml:space="preserve">
<style type="text/css">
	.st0{fill:#FFFFFF;}
</style>
<g id="info">
</g>
<g id="icons">
	<g id="notification">
		<path class="st0" d="M13.7,20h-3.5c-0.7,0-1.3,0.8-0.9,1.5C9.9,22.4,10.9,23,12,23s2.1-0.6,2.6-1.5C15,20.8,14.5,20,13.7,20z"/>
		<path class="st0" d="M21.8,16.7l-0.4-0.5C19.8,14.1,19,11.6,19,9V8.3c0-3.6-2.6-6.8-6.2-7.2C8.6,0.6,5,3.9,5,8v1
			c0,2.6-0.8,5.1-2.4,7.2l-0.4,0.5C2,16.9,1.9,17.3,2,17.5C2.3,18.4,3.1,19,4,19h16c0.9,0,1.7-0.6,1.9-1.5
			C22,17.2,21.9,16.9,21.8,16.7z"/>
	</g>
</g>
</svg>
