<?xml version="1.0" encoding="utf-8"?>
<!-- Generator: Adobe Illustrator 26.0.3, SVG Export Plug-In . SVG Version: 6.00 Build 0)  -->
<svg version="1.1" id="Ebene_1" xmlns="http://www.w3.org/2000/svg" xmlns:xlink="http://www.w3.org/1999/xlink" x="0px" y="0px"
	 viewBox="0 0 24 24" style="enable-background:new 0 0 24 24;" xml:space="preserve">
<style type="text/css">
	.st0{fill:#FFFFFF;}
</style>
<g id="info">
</g>
<g>
	<path class="st0" d="M13.7,20h-3.5c-0.7,0-1.3,0.8-0.9,1.5C9.9,22.4,10.9,23,12,23s2.1-0.6,2.6-1.5C15,20.8,14.5,20,13.7,20z"/>
	<path class="st0" d="M3.7,19L18,4.7c-1.1-1.9-3-3.3-5.2-3.6C8.6,0.6,5,3.9,5,8v1c0,2.6-0.8,5.1-2.4,7.2l-0.4,0.5
		C2,16.9,1.9,17.3,2,17.5C2.3,18.3,3,18.9,3.7,19z"/>
	<path class="st0" d="M21.4,16.2C19.8,14.1,19,11.6,19,9V8.3c0-0.2,0-0.5,0-0.7L7.6,19H20c0.9,0,1.7-0.6,1.9-1.5
		c0.1-0.3,0-0.6-0.1-0.8L21.4,16.2z"/>
	<path class="st0" d="M22.4,2.3c-0.1-0.1-0.3-0.2-0.4-0.2s-0.3,0.1-0.4,0.2L1.7,22.1c-0.2,0.2-0.2,0.6,0,0.9c0.2,0.2,0.7,0.2,0.9,0
		l4-4L18.8,6.7l3.6-3.6C22.6,2.9,22.6,2.5,22.4,2.3z"/>
</g>
</svg>
