<?xml version="1.0" encoding="utf-8"?>
<!-- Generator: Adobe Illustrator 26.0.3, SVG Export Plug-In . SVG Version: 6.00 Build 0)  -->
<svg version="1.1" id="Ebene_1" xmlns="http://www.w3.org/2000/svg" xmlns:xlink="http://www.w3.org/1999/xlink" x="0px" y="0px"
	 viewBox="0 0 1696.2 1696.1" style="enable-background:new 0 0 1696.2 1696.1;" xml:space="preserve">
<style type="text/css">
	.st0{fill:#FFFFFF;}
</style>
<g id="pen">
	<path class="st0" d="M1648,305.4L1390.8,48.2C1359.8,17.1,1318.5,0,1274.6,0c-43.9,0-85.2,17.1-116.2,48.2L81.6,1124.9
		c-10.2,10.2-16.8,23.5-18.7,37.8L0.6,1621.2c-2.8,20.4,4.2,41,18.8,55.6c12.5,12.5,29.3,19.3,46.7,19.3c3,0,5.9-0.2,8.9-0.6
		l458.5-62.2c14.3-1.9,27.6-8.5,37.8-18.8L1648,537.8c31-31,48.1-72.3,48.1-116.2C1696.2,377.7,1679.1,336.4,1648,305.4z
		 M493.6,1505.4l-350.4,47.6l47.6-350.4l763-763l302.8,302.8L493.6,1505.4z M1554.6,444.4L1350,648.9l-302.8-302.8l204.5-204.5
		c8.2-8.2,17.8-9.4,22.8-9.4c5,0,14.6,1.2,22.8,9.4l257.2,257.2c8.2,8.2,9.4,17.8,9.4,22.8C1564,426.6,1562.8,436.2,1554.6,444.4z"
		/>
</g>
<g id="Layer_1">
</g>
</svg>
