<svg width="45" height="45" viewBox="0 0 45 45" fill="none" xmlns="http://www.w3.org/2000/svg">
<path d="M13.2605 18.4006L9.40243 22.2587C6.10739 25.5537 6.10739 30.8962 9.40243 34.191C12.6975 37.4861 18.0398 37.4861 21.3349 34.191L26.4773 29.0486C29.7725 25.7536 29.7725 20.4113 26.4773 17.1162C25.78 16.4189 24.991 15.8692 24.1491 15.467L22.4998 17.1163C22.3283 17.2877 22.1836 17.4759 22.0657 17.6755C22.9528 17.9297 23.7898 18.4062 24.4886 19.105C26.6853 21.3017 26.6853 24.8632 24.4886 27.0599L19.3461 32.2023C17.1494 34.3991 13.5879 34.3991 11.3912 32.2023C9.19448 30.0057 9.19448 26.4441 11.3912 24.2474L13.6204 22.0182C13.3048 20.8366 13.1849 19.6137 13.2605 18.4006Z" fill="black"/>
<path d="M18.5225 13.1388C15.2275 16.4338 15.2275 21.7761 18.5225 25.0712C19.2199 25.7685 20.0089 26.3183 20.8508 26.7204L23.0321 24.5391C22.1087 24.2925 21.2358 23.8069 20.5113 23.0825C18.3146 20.8858 18.3146 17.3242 20.5113 15.1275L25.6538 9.98505C27.8505 7.78835 31.4121 7.78835 33.6086 9.98505C35.8055 12.1818 35.8055 15.7433 33.6086 17.94L31.3794 20.1692C31.695 21.3508 31.8151 22.5738 31.7394 23.7868L35.5973 19.9287C38.8925 16.6337 38.8925 11.2914 35.5973 7.9963C32.3025 4.70126 26.96 4.70126 23.665 7.9963L18.5225 13.1388Z" fill="black"/>
</svg>
