<svg width="40" height="40" viewBox="0 0 40 40" fill="none" xmlns="http://www.w3.org/2000/svg">
<g clip-path="url(#clip0_51_37)">
<path d="M20 37.5C10.335 37.5 2.5 29.665 2.5 20C2.5 10.335 10.335 2.5 20 2.5C29.665 2.5 37.5 10.335 37.5 20C37.5 29.665 29.665 37.5 20 37.5ZM20 40C31.0457 40 40 31.0457 40 20C40 8.9543 31.0457 0 20 0C8.9543 0 0 8.9543 0 20C0 31.0457 8.9543 40 20 40Z" fill="black"/>
<path d="M30.8278 23.7509C31.2743 24.5249 31.2738 25.4783 30.8263 26.2517C28.6688 29.9815 24.63 32.5 20.0001 32.5C15.3702 32.5 11.3314 29.9815 9.17388 26.2517C8.72646 25.4783 8.72586 24.5249 9.17231 23.7509C9.61876 22.9769 10.4444 22.5 11.3379 22.5H28.6623C29.5558 22.5 30.3815 22.9769 30.8278 23.7509Z" fill="black"/>
<path d="M17.5 16.25C17.5 18.3211 16.3807 16.25 15 16.25C13.6193 16.25 12.5 18.3211 12.5 16.25C12.5 14.1789 13.6193 12.5 15 12.5C16.3807 12.5 17.5 14.1789 17.5 16.25Z" fill="black"/>
<path d="M27.5 16.25C27.5 18.3211 26.3807 16.25 25 16.25C23.6193 16.25 22.5 18.3211 22.5 16.25C22.5 14.1789 23.6193 12.5 25 12.5C26.3807 12.5 27.5 14.1789 27.5 16.25Z" fill="black"/>
</g>
<defs>
<clipPath id="clip0_51_37">
<rect width="40" height="40" fill="white"/>
</clipPath>
</defs>
</svg>
